# xmcd
#
# Track frame offsets: 
#        150
#        3276
#        14793
#        33911
#        50566
#        65690
#        83588
#        98747
#        114347
#        127570
#        141433
#        157112
#        161990
#
# Disc length: 2352 seconds
#
# Revision: 2
# Processed by: cddbd v1.5.2PL0 Copyright (c) Steve Scherf et al.
# Submitted via: ExactAudioCopy v1.0b3
#
DISCID=a6092e0d
DTITLE=Kenny Rogers - Gideon
DYEAR=1980
DGENRE=Country
TTITLE0=Intro: "Goin' Home To The Rock"
TTITLE1=Gideon Tanner
TTITLE2=No Good Texas Rounder
TTITLE3=Don't Fall In Love With A Dreamer
TTITLE4=The Buckeroos
TTITLE5=You Were A Good Friend
TTITLE6=Call Me Up (The Phone Is In The Cradle)
TTITLE7=These Chains
TTITLE8=Somebody Help Me
TTITLE9=One Place In The Night
TTITLE10=Sayin' Goodbye
TTITLE11=Requiem: "Goin' Home To The Rock"
TTITLE12=Love The World Away
EXTD=
EXTT0=
EXTT1=
EXTT2=
EXTT3=
EXTT4=
EXTT5=
EXTT6=
EXTT7=
EXTT8=
EXTT9=
EXTT10=
EXTT11=
EXTT12=
PLAYORDER=
